<svg xmlns="http://www.w3.org/2000/svg" xmlns:xlink="http://www.w3.org/1999/xlink" viewBox="0,0,256,256" width="96px" height="96px"><g fill="none" fill-rule="nonzero" stroke="none" stroke-width="1" stroke-linecap="butt" stroke-linejoin="miter" stroke-miterlimit="10" stroke-dasharray="" stroke-dashoffset="0" font-family="none" font-weight="none" font-size="none" text-anchor="none" style="mix-blend-mode: normal"><g transform="scale(5.33333,5.33333)"><path d="M34,42h-20c-4.418,0 -8,-3.582 -8,-8v-20c0,-4.418 3.582,-8 8,-8h20c4.418,0 8,3.582 8,8v20c0,4.418 -3.582,8 -8,8z" fill="#8b59c0"></path><path d="M18,15v14.785c-0.079,0.034 -2.114,0.452 -3.02,0.74c-1.087,0.345 -1.753,1.16 -1.933,2.187c-0.255,1.458 0.546,2.76 1.918,3.126c1.365,0.364 2.698,0.116 3.835,-0.767c0.893,-0.693 1.2,-1.684 1.2,-2.782v-12.718l10,-2.143v10.356c-0.079,0.034 -2.114,0.452 -3.02,0.74c-1.087,0.345 -1.753,1.16 -1.933,2.187c-0.255,1.458 0.546,2.76 1.918,3.126c1.365,0.364 2.698,0.116 3.835,-0.767c0.893,-0.692 1.2,-1.683 1.2,-2.781v-18.289z" fill="#fac8d5"></path><path d="M20,14.571l-2,0.429v5l2,-0.429z" fill="#ffffff"></path><path d="M30,12.429v5l2,-0.429v-5z" fill="#ffffff"></path></g></g></svg>